<svg
  width="16"
  height="16"
  viewBox="0 0 16 16"
  xmlns="http://www.w3.org/2000/svg"
>
  <path
    d="M12.802 13.4244L12.8024 13.4257L12.6903 13.4503C12.6297 13.46 12.5802 13.4741 12.5348 13.496L12.4876 13.5135C11.7425 13.8913 10.957 14.0853 10.1631 14.0853C10.0191 14.0853 9.74886 14.0471 9.35993 13.9719C8.97165 13.9053 8.54909 13.8305 8.09674 13.7488C7.64524 13.6672 7.20146 13.5894 6.76668 13.5144C6.32783 13.4388 5.98841 13.4025 5.72934 13.4025C5.54634 13.4025 5.36098 13.4113 5.17799 13.4287L4.39671 13.5033L4.9307 12.9281C4.98427 12.8707 5.03485 12.8135 5.08349 12.7567C5.32284 12.4768 5.52127 12.1813 5.67319 11.8775C5.82491 11.5736 5.93612 11.2389 6.0034 10.8815C6.07069 10.5232 6.10519 10.1193 6.10519 9.68109C6.10519 9.48117 6.08183 9.28274 6.03533 9.09074L5.94619 8.72196L8.93094 8.71618C8.98387 8.71168 9.02929 8.69968 9.07365 8.67911C9.4045 8.57132 9.61879 8.27904 9.61879 7.94712C9.61879 7.57705 9.35436 7.26012 8.98944 7.19305C8.96287 7.18727 8.93887 7.18405 8.91465 7.18341L8.91122 7.18362C8.90201 7.18341 8.89473 7.1832 8.88894 7.18277L8.85015 7.18555H5.57741L5.51184 6.97577C5.16834 5.87371 4.99456 4.94287 4.99456 4.20852C4.99456 3.84938 5.06163 3.50331 5.19406 3.17996C5.32627 2.85768 5.51055 2.5699 5.74198 2.32497C5.97191 2.08112 6.25604 1.88655 6.58647 1.74684C6.91582 1.60777 7.28953 1.53705 7.69667 1.53705C9.35329 1.53705 10.2297 2.32433 10.3758 3.94388C10.3784 3.95266 10.3803 3.96188 10.3821 3.97109L10.3878 4.04438L10.3857 4.05959C10.3874 4.09281 10.3968 4.14359 10.4161 4.20338C10.4935 4.7183 10.9103 5.07979 11.4108 5.07979C11.929 5.07979 12.3567 4.68551 12.4103 4.1813H12.4098L12.4158 4.04309C12.416 4.04095 12.4139 4.02424 12.413 4.00559L12.4126 3.98352C12.3543 3.34067 12.1988 2.76147 11.9519 2.26647C11.705 1.77341 11.3783 1.35448 10.9814 1.0217C10.5833 0.68742 10.1041 0.430923 9.55857 0.259282C9.01194 0.0872132 8.4023 0 7.74745 0C7.03839 0 6.38311 0.102642 5.79962 0.305139C5.21527 0.507851 4.70721 0.800561 4.29 1.17427C3.8715 1.54905 3.54151 2.01576 3.30922 2.56154C3.07651 3.10839 2.95844 3.72724 2.95844 4.40202C2.95844 4.72001 3.0013 5.11194 3.08594 5.56664C3.15237 5.92685 3.25372 6.34278 3.38765 6.80327L3.49865 7.18577L1.79703 7.18212C1.40725 7.21898 1.10104 7.54812 1.10104 7.94754C1.10104 8.33968 1.39739 8.66625 1.78996 8.70739L1.86324 8.72068L3.94029 8.72239L3.99172 8.95746C4.07036 9.31938 4.11043 9.69009 4.11043 10.0584C4.11043 10.6004 4.05879 11.087 3.957 11.5036C3.85565 11.9191 3.70801 12.2926 3.51772 12.6123C3.32787 12.9307 3.09237 13.2131 2.8168 13.451C2.54273 13.6882 2.22452 13.9016 1.87224 14.0842C1.30439 14.273 0.670329 14.615 0.777899 15.2135C0.865755 15.7022 1.33118 16.0579 1.82746 15.9922C1.84246 15.9896 1.84289 15.9894 1.85596 15.9832C3.24344 15.3506 4.50342 15.0315 5.60741 15.0315C5.75034 15.0315 5.95005 15.0555 6.20076 15.1031C6.4519 15.1507 6.72982 15.209 7.02682 15.2771C7.32575 15.3446 7.63517 15.4192 7.95424 15.501C8.27352 15.5824 8.5808 15.6572 8.87651 15.7249C9.17222 15.7929 9.442 15.8529 9.6865 15.9037C9.93207 15.9547 10.1215 15.9795 10.2651 15.9795H10.3088C11.4239 15.9795 12.6078 15.5132 12.658 15.4933C12.7672 15.4457 13.1015 15.3217 13.1015 15.3217C13.6323 15.2012 13.9584 14.6861 13.8425 14.1693C13.7373 13.7 13.282 13.3734 12.802 13.4244Z"
    fill="inherit"
  />
</svg>
