<svg id="svg201" width="640" height="768" overflow="hidden" version="1.1" xmlns="http://www.w3.org/2000/svg" xmlns:xlink="http://www.w3.org/1999/xlink">
  <defs id="defs9">
    <clipPath id="clip0">
      <rect id="rect2" x="386" y="-77" width="637" height="820"/>
    </clipPath>
  </defs>
  <g id="g199" transform="translate(-386,77)" clip-path="url(#clip0)">
    <g font-family="Ubuntu" font-size="88px" font-stretch="condensed" font-weight="700">
      <text id="text17" x="676.16803" y="17.58">C</text>
      <text id="text31" x="671.24005" y="145.58">O</text>
      <text id="text35" x="802.89203" y="145.448">B</text>
      <text id="text45" x="678.58801" y="273.492">L</text>
      <text id="text57" x="674.89203" y="400.87601">U</text>
      <text id="text69" x="666.53204" y="529.492">M</text>
    </g>
    <g fill="none" stroke="#000" stroke-miterlimit="8">
      <rect id="rect75" x="386.5" y="-76.5" width="127" height="127"/>
      <rect id="rect75-2" x="514.5" y="-76.5" width="127" height="127"/>
      <rect id="rect75-2-0" x="770.5" y="-76.5" width="127" height="127"/>
      <rect id="rect75-2-0-9" x="898.5" y="-76.5" width="127" height="127"/>
    </g>
    <text id="text81" x="672.73602" y="657.492" font-family="Ubuntu" font-size="88px" font-stretch="condensed" font-weight="700">N</text>
    <g stroke-width="2">
      <g id="g97" transform="translate(1.4893 -17.688)" clip-path="url(#clip4)">
        <g id="g95" clip-path="url(#clip5)" stroke-width="2">
          <g id="g93" clip-path="url(#clip6)" fill="none" stroke-linejoin="round" stroke-width="1.9881">
            <path id="path87" transform="matrix(1 0 0 1.012 919 91)" d="m59.184 26.053c0 9.7673-17.684 39.521-17.684 39.521s-17.663-29.754-17.663-39.521c-.3405-9.7608 7.296-17.95 17.057-18.29 9.761-.34061 17.95 7.296 18.29 17.057.0144.4109.0144.8224 0 1.2333z" stroke="#000007"/>
            <path id="path89" transform="matrix(1 0 0 1.012 919 91)" d="m49.847 26.053c0 4.6102-3.7371 8.3474-8.3473 8.3474s-8.3473-3.7372-8.3473-8.3474c0-4.6101 3.7371-8.3473 8.3473-8.3473 4.6052.0118 8.3355 3.7422 8.3473 8.3473z" stroke="#000008"/>
            <path id="path91" transform="matrix(1 0 0 1.012 919 91)" d="m31.948 74.631h19.126" stroke="#000005"/>
          </g>
        </g>
      </g>
      <g id="g115" transform="translate(-1.5 -21.51)" clip-path="url(#clip7)">
        <g id="g113" clip-path="url(#clip8)" stroke-width="2">
          <g id="g111" clip-path="url(#clip9)" fill="none" stroke-linejoin="round" stroke-width="2">
            <path id="path99" d="m591.38-1.8204h-22.505l-12.429 17.938h22.177z" stroke="#000200"/>
            <path id="path101" d="m578.35 15.831-14.354-27.009" stroke="#000"/>
            <path id="path103" d="m601.64 15.933-15.42-27.152h11.406c2.257-.1491 4.207 1.5595 4.357 3.8165.002.03154.003.06307.005.09461v.38906c-.097 2.2598-2.008 4.0131-4.267 3.9162-.032-.00123-.063-.00307-.095-.00512" stroke="#000008"/>
            <path id="path105" d="m560.68-11.26h10.484" stroke="#000"/>
            <path id="path107" d="m613.98 15.933c0 6.8194-5.528 12.348-12.347 12.348-6.82 0-12.348-5.5282-12.348-12.348 0-6.8194 5.528-12.348 12.348-12.348 6.819 0 12.347 5.5282 12.347 12.348z" stroke="#000007"/>
            <path id="path109" d="m569.71 15.933c0 6.8194-5.528 12.348-12.348 12.348-6.819 0-12.347-5.5282-12.347-12.348 0-6.8194 5.528-12.348 12.347-12.348 6.82 0 12.348 5.5282 12.348 12.348z" stroke="#00000d"/>
          </g>
        </g>
      </g>
      <g id="g155" transform="translate(-2 -13.5)" clip-path="url(#clip10)">
        <g id="g153" clip-path="url(#clip11)" stroke-width="2">
          <g id="g151" clip-path="url(#clip12)" fill="none" stroke-linejoin="round" stroke-width="1.9885">
            <path id="path117" transform="matrix(1 0 0 1.0116 537 469)" d="m16.139 31.854 6.8881 2.8533" stroke="#000003"/>
            <path id="path119" transform="matrix(1 0 0 1.0116 537 469)" d="m31.854 16.117 2.9202 6.9995" stroke="#000007"/>
            <path id="path121" transform="matrix(1 0 0 1.0116 537 469)" d="m27.864 27.886-11.681-11.614" stroke="#00000c"/>
            <path id="path123" transform="matrix(1 0 0 1.0116 537 469)" d="m69.861 31.854-6.8881 2.8533" stroke="#000007"/>
            <path id="path125" transform="matrix(1 0 0 1.0116 537 469)" d="m54.146 16.117-2.9202 6.9995" stroke="#000"/>
            <path id="path127" transform="matrix(1 0 0 1.0116 537 469)" d="m58.136 27.886 11.681-11.614" stroke="#000007"/>
            <path id="path129" transform="matrix(1 0 0 1.0116 537 469)" d="m16.139 54.056 6.8881-2.8533" stroke="#000007"/>
            <path id="path131" transform="matrix(1 0 0 1.0116 537 469)" d="m31.854 69.794 2.9202-6.9995" stroke="#000002"/>
            <path id="path133" transform="matrix(1 0 0 1.0116 537 469)" d="m27.864 58.024-11.681 11.614" stroke="#000003"/>
            <path id="path135" transform="matrix(1 0 0 1.0116 537 469)" d="m69.861 54.056-6.8881-2.8533" stroke="#000"/>
            <path id="path137" transform="matrix(1 0 0 1.0116 537 469)" d="m54.146 69.794-2.9202-6.9995" stroke="#000004"/>
            <path id="path139" transform="matrix(1 0 0 1.0116 537 469)" d="m58.136 58.024 11.681 11.614" stroke="#000005"/>
            <path id="path141" transform="matrix(1 0 0 1.0116 537 469)" d="m37.093 28.711c-7.8976 3.2598-11.657 12.305-8.3974 20.202 3.2601 7.8976 12.305 11.657 20.203 8.3973 7.8976-3.2598 11.657-12.305 8.3971-20.202-.0022-.0053-.0042-.0105-.0064-.0158-3.3215-7.8323-12.305-11.56-20.196-8.3815z" stroke="#000004"/>
            <path id="path143" transform="matrix(1 0 0 1.0116 537 469)" d="m43 21.556v-16.451" stroke="#000"/>
            <path id="path145" transform="matrix(1 0 0 1.0116 537 469)" d="m43 80.895v-16.429" stroke="#00000b"/>
            <path id="path147" transform="matrix(1 0 0 1.0116 537 469)" d="m64.467 43h16.429" stroke="#000001"/>
            <path id="path149" transform="matrix(1 0 0 1.0116 537 469)" d="m5.1047 43h16.429" stroke="#000"/>
          </g>
        </g>
      </g>
      <g id="g173" transform="translate(8.0001 -13.185)" clip-path="url(#clip13)">
        <g id="g171" clip-path="url(#clip14)" stroke-width="2">
          <g id="g169" clip-path="url(#clip15)" fill="none" stroke-linejoin="round" stroke-width="2">
            <g stroke="#000">
              <path id="path157" d="m954.63 666.63.93 5.903-12.94-6.591-12.959 6.591 2.264-14.354-10.27-10.291 14.354-2.264 3.943-7.764"/>
              <path id="path159" d="m976.34 630.32 1.172-1.173c4.712-5.042 4.444-12.948-.598-17.66-4.806-4.491-12.271-4.487-17.072.01-4.874-4.874-12.776-4.874-17.65 0s-4.874 12.776 0 17.65l12.575 12.576"/>
              <path id="path161" d="m986.35 654.23c0 10.094-8.182 18.277-18.276 18.277s-18.277-8.183-18.277-18.277 8.183-18.277 18.277-18.277 18.276 8.183 18.276 18.277z"/>
              <path id="path163" d="m978.69 654.23c0 5.807-4.707 10.514-10.513 10.514-5.807 0-10.514-4.707-10.514-10.514z"/>
            </g>
            <path id="path165" d="m977.29 647.24c0 .782-.634 1.415-1.415 1.415-.782 0-1.416-.633-1.416-1.415s.634-1.415 1.416-1.415c.781 0 1.415.633 1.415 1.415z" stroke="#000005"/>
            <path id="path167" d="m961.86 647.24c0 .782-.634 1.415-1.416 1.415-.781 0-1.415-.633-1.415-1.415s.634-1.415 1.415-1.415c.782 0 1.416.633 1.416 1.415z" stroke="#000"/>
          </g>
        </g>
      </g>
      <g id="g191" transform="translate(-.34918 -11.346)" clip-path="url(#clip16)">
        <g id="g189" clip-path="url(#clip17)" stroke-width="2">
          <g id="g187" clip-path="url(#clip18)" fill="none" stroke-linejoin="round" stroke-width="2">
            <path id="path175" d="m848.57 346.98-2.71 4.406c15.28 7.935 21.235 26.755 13.3 42.035-7.936 15.28-26.755 21.235-42.036 13.3-1.123-.584-2.21-1.235-3.255-1.951l-2.533 4.406" stroke="#00000b"/>
            <path id="path177" d="m828.94 409.5v7.821" stroke="#000"/>
            <path id="path179" d="m816.51 417.48h24.852" stroke="#020202"/>
            <path id="path181" d="m808.69 368.22 6.742 6.609-1.058 5.552 3.834 2.248 2.688 9.407 7.601-13.902-7.91-4.098-5.155.397-.529-4.23 6.61-4.473-.287-8.571" stroke="#000"/>
            <path id="path183" d="m839.21 358.52-1.938 5.486 2.357 1.455 8.57-.926-2.621 5.156-6.742.771c-5.53 4.627.925 7.006.925 7.006l2.666.132 2.313 9.672 2.38-3.481 5.574-8.152" stroke="#000"/>
            <path id="path185" d="m853.7 379.12c0 13.165-10.672 23.838-23.838 23.838s-23.839-10.673-23.839-23.838c0-13.166 10.673-23.839 23.839-23.839s23.838 10.673 23.838 23.839z" stroke="#000005"/>
          </g>
        </g>
      </g>
      <path id="path10434" d="m470.53 263.3.002.004-.41955.0921c-.2268.0374-.41206.0891-.58197.17103l-.17665.0655c-2.7886 1.414-5.7284 2.14-8.6996 2.14-.53893 0-1.5503-.14297-3.0059-.42441-1.4532-.24926-3.0346-.5292-4.7276-.83497-1.6898-.30539-3.3507-.59657-4.9779-.87726-1.6424-.28294-2.9127-.4188-3.8823-.4188-.6849 0-1.3786.0337-2.0635.0981l-2.924.2792 1.9985-2.1527c.2006-.21482.38979-.4289.57183-.64148.89579-1.0476 1.6384-2.1535 2.207-3.2905.56783-1.1374.98404-2.39 1.2358-3.7276.25188-1.341.38096-2.8526.38096-4.4926 0-.74822-.0876-1.4909-.26161-2.2094l-.33346-1.3802 11.171-.0224c.19798-.0187.36789-.0618.5341-.13885 1.2382-.40342 2.0402-1.4973 2.0402-2.7395 0-1.385-.98966-2.5712-2.3554-2.8222-.0996-.0224-.18938-.0337-.27995-.0374l-.0112.00078c-.0337-.00078-.0618-.002-.0835-.003l-.14522.0112h-12.248l-.24552-.78512c-1.2856-4.1246-1.936-7.6083-1.936-10.357 0-1.3441.25112-2.6393.74664-3.8495.49481-1.2062 1.1845-2.2832 2.0506-3.1999.86053-.91263 1.9239-1.6408 3.1606-2.1637 1.2326-.52048 2.6313-.78516 4.155-.78516 6.2 0 9.4801 2.9465 10.027 9.0078.0112.0337.015.0674.0224.1018l.0225.27433-.007.0569c.007.12425.0416.31438.11378.53814.28967 1.9271 1.8496 3.28 3.7228 3.28 1.9394 0 3.5401-1.4756 3.7407-3.3627h-.002l.0225-.51726c.00074-.007-.007-.0707-.0112-.14035l-.002-.0827c-.21819-2.4059-.80016-4.5736-1.7242-6.4262-.92404-1.8453-2.1468-3.4132-3.6322-4.6587-1.4899-1.2511-3.2834-2.211-5.3251-2.8534-2.0468-.64413-4.3284-.97053-6.7792-.97053-2.6537 0-5.1062.38414-7.2899 1.142-2.187.75866-4.0884 1.8542-5.6499 3.2528-1.5663 1.4026-2.8013 3.1494-3.6706 5.192-.87094 2.0466-1.3128 4.3627-1.3128 6.8882 0 1.1901.16055 2.6569.47718 4.3587.2485 1.3481.62793 2.9048 1.1292 4.6282l.41543 1.4315-6.3685-.015c-1.4588.1381-2.6048 1.3698-2.6048 2.8646 0 1.4676 1.1091 2.6898 2.5783 2.8438l.27433.0498 7.7735.007.19237.87977c.29417 1.3545.44428 2.7419.44428 4.1204 0 2.0285-.19312 3.8496-.57422 5.4088-.37932 1.555-.93187 2.9529-1.644 4.1494-.71053 1.1916-1.5919 2.2485-2.6232 3.1389-1.0257.88774-2.2167 1.6864-3.5351 2.3698-2.1252.7066-4.4982 1.9866-4.0957 4.2265.32898 1.829 2.0707 3.1602 3.9281 2.9144.0561-.0112.0576-.0112.10666-.0337 5.1928-2.3676 9.9084-3.5618 14.04-3.5618.53492 0 1.2824.0898 2.2207.26797.93991.17814 1.98.39634 3.0916.65121 1.1188.25262 2.2768.53182 3.471.83796 1.1949.30465 2.345.58459 3.4517.83797 1.1067.25449 2.1164.47905 3.0315.66917.91906.19087 1.628.28369 2.1655.28369h.16355c4.1734 0 8.6042-1.7452 8.7921-1.8196.40869-.17814 1.6598-.64222 1.6598-.64222 1.9866-.45099 3.207-2.3788 2.7732-4.313-.39372-1.7564-2.0977-2.9787-3.8942-2.7878z" fill="inherit"/>
    </g>
    <g fill="none" stroke="#000" stroke-miterlimit="8">
      <g>
        <rect id="rect61-3" x="643.5" y="-75.5" width="125" height="125" stroke-width="2.9992"/>
        <g>
          <rect id="rect61-3-3" x="643.5" y="52.5" width="125" height="125" stop-color="#000000" stroke-width="2.9992" style="-inkscape-stroke:none;font-variation-settings:normal"/>
          <rect id="rect61-3-3-5" x="515.5" y="52.5" width="125" height="125" stop-color="#000000" stroke-width="3" style="font-variation-settings:normal"/>
          <rect id="rect61-3-3-5-0" x="771.5" y="52.5" width="125" height="125" stop-color="#000000" stroke-width="3" style="font-variation-settings:normal"/>
        </g>
      </g>
      <g>
        <rect id="rect75-3" x="386.5" y="51.5" width="127" height="127"/>
        <rect id="rect75-2-0-9-6" x="898.5" y="51.5" width="127" height="127"/>
        <rect id="rect75-3-6" x="386.5" y="179.5" width="127" height="127"/>
        <rect id="rect75-2-6-1" x="514.5" y="179.5" width="127" height="127"/>
        <rect id="rect75-2-0-0-8" x="770.5" y="179.5" width="127" height="127"/>
        <rect id="rect75-2-0-9-6-7" x="898.5" y="179.5" width="127" height="127"/>
        <rect id="rect75-3-6-2" x="386.5" y="307.5" width="127" height="127"/>
        <rect id="rect75-2-6-1-0" x="514.5" y="307.5" width="127" height="127"/>
        <rect id="rect75-2-0-0-8-2" x="770.5" y="307.5" width="127" height="127"/>
        <rect id="rect75-2-0-9-6-7-3" x="898.5" y="307.5" width="127" height="127"/>
        <rect id="rect75-3-6-2-5" x="386.5" y="435.5" width="127" height="127"/>
        <rect id="rect75-2-6-1-0-9" x="514.5" y="435.5" width="127" height="127"/>
        <rect id="rect75-2-0-0-8-2-2" x="770.5" y="435.5" width="127" height="127"/>
        <rect id="rect75-2-0-9-6-7-3-2" x="898.5" y="435.5" width="127" height="127"/>
        <rect id="rect75-3-6-2-5-9" x="386.5" y="563.5" width="127" height="127"/>
        <rect id="rect75-2-6-1-0-9-7" x="514.5" y="563.5" width="127" height="127"/>
        <rect id="rect75-2-0-0-8-2-2-3" x="770.5" y="563.5" width="127" height="127"/>
        <rect id="rect75-2-0-9-6-7-3-2-6" x="898.5" y="563.5" width="127" height="127"/>
      </g>
      <g stroke-width="2.9992">
        <rect id="rect61-3-3-4" x="643.5" y="180.5" width="125" height="125" stop-color="#000000" style="-inkscape-stroke:none;font-variation-settings:normal"/>
        <rect id="rect61-3-3-4-7" x="643.5" y="308.5" width="125" height="125" stop-color="#000000" style="-inkscape-stroke:none;font-variation-settings:normal"/>
        <rect id="rect61-3-3-4-7-8" x="643.5" y="436.5" width="125" height="125" stop-color="#000000" style="-inkscape-stroke:none;font-variation-settings:normal"/>
        <rect id="rect61-3-3-4-7-8-4" x="643.5" y="564.5" width="125" height="125" stop-color="#000000" style="-inkscape-stroke:none;font-variation-settings:normal"/>
      </g>
    </g>
    <text id="text25387" transform="translate(429.99 -63.602)" font-family="Ubuntu" font-size="85.333px" font-weight="bold" style="line-height:1.25;shape-inside:url(#rect25389);white-space:pre" xml:space="preserve"/>
  </g>
</svg>
