<?xml version="1.0" encoding="UTF-8" standalone="no"?>
<svg viewBox="0 0 549.99999 170" version="1.1" id="svg55"
   xmlns="http://www.w3.org/2000/svg">
   <defs id="defs59">
      <rect x="232.98727" y="90.120562" width="356.56397" height="60.281313" id="rect59863" />
      <rect x="232.68587" y="7.8365706" width="293.56999" height="61.486938" id="rect11995" />
      <rect x="217.76385" y="99.477531" width="304.47757" height="58.578892" id="rect18418" />
   </defs>
   <sodipodiNamedview id="namedview57" pagecolor="#505050" bordercolor="#ffffff" borderopacity="1"
      showgrid="false" width="401px" />
   <g id="g53" transform="translate(3.9182853,3.3154722)">
      <path
         d="M 18.304743,0.54420749 C 0.3697433,4.4882075 -6.0862567,25.884207 6.7877433,38.710207 c 5.0909997,5.073 9.1169997,6.593 18.2669997,6.899 3.162,0.106 5.75,0.226 5.75,0.269 0,0.042 -0.753,1.83 -1.673,3.973 -8.694,20.263 -8.334,46.972 0.88,65.259003 0.436,0.865 0.793,1.631 0.793,1.702 0,0.071 -1.913,0.216 -4.25,0.322 -26.93299973,1.215 -32.5469997,36.623 -7.075,44.621 l 2.491,0.783 h 83.833997 83.833 l 2.667,-0.908 c 16.374,-5.577 21.237,-25.444 9.208,-37.623 -5.081,-5.144 -10.211,-6.969 -19.585,-6.969 -2.451,0 -4.457,-0.077 -4.457,-0.17 0,-0.093 0.662,-1.719 1.47,-3.611 9.246,-21.647003 8.792,-44.085003 -1.358,-67.136003 -0.136,-0.311 0.4,-0.417 2.111,-0.417 8.211,0 13.74,-2.061 18.782,-7.004 12.421,-12.175 6.464,-33.5329995 -10.557,-37.85099951 l -3.2,-0.811004 -82.207,0.033 c -66.744997,0.027 -82.583997,0.116004 -84.206997,0.473004 m 8.419,6.51800001 c 7.8,1.757 13.469,10.2019995 12.158,18.1129995 -2.213,13.355 -18.302,18.457 -27.802,8.817 -11.33999973,-11.508 -0.295,-30.5209995 15.644,-26.9299995 m 81.485997,-0.354 c 53.329,3.4019995 86.307,58.5109995 63.678,106.4130025 l -1.85,3.917 h -21.506 c -11.828,0 -21.443,-0.061 -21.366,-0.136 0.076,-0.074 1.039,-0.798 2.139,-1.609 27.366,-20.172003 20.472,-63.307003 -11.834,-74.040003 -6.345,-2.108 -4.104,-1.998 -43.069997,-2.126 l -35.571,-0.118 1.676,-2.069 c 5.478,-6.765 6.561,-16.487 2.686,-24.117 -0.897,-1.767 -1.466,-2.611 -3.733,-5.5349995 l -0.71,-0.917 32.111,0.001 c 17.743,0.001 34.455997,0.151 37.349997,0.336 m 76.218,0.002 c 13,1.688 18.754,17.3479995 9.891,26.9209995 -3.891,4.203 -7.327,5.412 -15.334,5.396 l -5.347,-0.011 -1.607,-2.502 c -7.236,-11.264 -18.873,-21.495 -31.893,-28.0409995 l -4.167,-2.095 23,0.007 c 12.659,0.003 24.105,0.15 25.457,0.325 M 81.109743,45.840207 c -0.076,0.074 -1.114,0.85 -2.305,1.724 -27.354,20.064 -19.828,64.598003 12.521,74.087003 6.651,1.95 4.244,1.84 42.729997,1.964 l 35.418,0.115 -1.658,1.993 c -6.841,8.22 -6.666,20.632 0.412,29.088 l 1.345,1.608 -35.967,-0.139 c -31.158,-0.12 -36.457997,-0.212 -39.634997,-0.686 -50.619,-7.559 -79.275,-60.604003 -57.427,-106.306003 l 1.713,-3.584 h 21.496 c 11.823,0 21.434,0.061 21.357,0.136 m 32.067997,0.959 c 27.183,7.159 35.795,41.11 15.377,60.618003 -16.252,15.527 -43.675997,11.736 -55.106997,-7.618003 -13.015,-22.034 0.168,-49.86 25.523,-53.875 2.899997,-0.459 11.045997,0.043 14.206997,0.875 M 35.970743,125.78621 c 7.537,11.73 18.604,21.606 31.68,28.27 l 4.542,2.315 -22.944,-0.01 c -12.848,-0.006 -24.043,-0.153 -25.441,-0.335 -13.299,-1.725 -18.8899997,-17.971 -9.438,-27.423 3.812,-3.812 6.947,-4.847 14.768,-4.874 l 5.5,-0.019 1.333,2.076 m 153.319997,-1.571 c 12.013,3.129 16.464,17.536 8.208,26.564 -8.853,9.679 -24.859,5.57 -27.858,-7.152 -2.761,-11.707 8.088,-22.424 19.65,-19.412"
         id="path51"
         />
      <text xmlSpace="preserve" id="text18416"
         style="font-style:normal;font-weight:bold;font-size:64px;line-height:0.85;font-family:Ubuntu;white-space:pre;shape-inside:url(#rect18418);fill:#000000;fill-opacity:1;stroke:none;-inkscape-font-specification:'Ubuntu Bold';font-stretch:normal;font-variant:normal"
         transform="translate(0.93882542,-72.292503)" />
      <g id="g228786" transform="matrix(0.21053435,0,0,0.21053435,62.299069,39.171017)">
         <path
            d="M 187.959,0.244 C 117.192,3.343 50.931,47.756 19.366,113.248 -1.557,156.658 -6.046,208.358 7.124,254.247 42.928,378.998 184.052,437.84 292.524,373.244 368.901,327.761 402.289,228.772 368.166,148.98 332.291,65.09 241.367,23.007 156.939,51.216 c -52.412,17.511 -91.376,58.5 -105.874,111.375 -4.79,17.471 -5.914,52.91 -2.24,70.674 17.183,83.098 93.934,135.105 175.821,119.138 C 331.293,331.609 374.259,198.542 298.311,124.257 253.127,80.061 182.64,74.853 135.918,112.258 c -65.122,52.136 -58.473,151.865 12.449,186.717 44.381,21.808 97.148,10.928 124.695,-25.712 29.362,-39.054 23.018,-96.079 -13.878,-124.749 -15.243,-11.843 -28.06,-16.065 -48.776,-16.065 -25.345,0 -41.11,6.831 -57.458,24.898 -26.915,29.745 -22.742,75.838 8.921,98.526 39.65,28.411 95.613,-4.855 84.383,-50.159 -5.702,-23 -32.222,-35.722 -53.11,-25.479 -14.284,7.006 -18.533,27.935 -7.814,38.487 5.958,5.864 15.489,5.586 18.82,-0.55 2.222,-4.093 9.636,-11.013 11.513,-10.745 2.176,0.311 3.993,7.115 3.175,11.89 -3.608,21.058 -33.828,25.059 -47.173,6.245 -12.043,-16.978 -8.468,-41.122 8.044,-54.333 18.21,-14.57 49.105,-11.75 67.036,6.118 17.917,17.855 20.749,47.679 6.78,71.412 -20.561,34.936 -68.248,42.947 -102.85,17.279 -14.782,-10.964 -26.466,-30.632 -28.9,-48.645 -5.589,-41.352 13.1,-75.131 51.183,-92.509 20.252,-9.241 48.056,-10.298 68.977,-2.622 64.64,23.716 85.524,107.097 40.719,162.575 -51.195,63.39 -156.966,49.505 -193.86,-25.449 C 59.64,200.16 82.339,125.872 140.204,91.131 172.121,71.969 213.25,67.277 249.796,78.629 c 51.032,15.852 88.524,57.063 99.155,108.991 2.563,12.516 2.895,41.525 0.619,54.013 -11.717,64.283 -61.709,114.766 -124.472,125.695 -28.686,4.996 -59.533,2.489 -85.36,-6.937 C 27.54,319.444 -5.263,174.719 77.428,85.485 141.745,16.08 248.885,8.16 323.673,67.284 c 53.866,42.582 80.167,107.611 70.848,175.164 -0.542,3.928 -0.928,7.199 -0.858,7.27 0.67,0.669 4.302,-18.855 5.3,-28.494 C 408.546,128.73 354.445,42.805 266.735,11.216 243.08,2.697 216.496,-1.006 187.959,0.244"
            id="path228784" />
      </g>
      <text xmlSpace="preserve" transform="translate(-18.084394,13.563295)" id="text11993"
         style="font-size:64px;line-height:1;font-family:Ubuntu;-inkscape-font-specification:Ubuntu;white-space:pre;shape-inside:url(#rect11995)">
         <tspan x="232.68555" y="59.515438" id="tspan222">
            <tspan style="font-weight:bold;-inkscape-font-specification:'Ubuntu Bold'" id="tspan220">J        b</tspan>
         </tspan>
      </text>
      <text xmlSpace="preserve" transform="translate(-25.318151,-13.563295)" id="text59861"
         style="font-weight:bold;font-size:64px;line-height:1;font-family:Ubuntu;-inkscape-font-specification:'Ubuntu Bold';white-space:pre;shape-inside:url(#rect59863)">
         <tspan x="232.98633" y="141.80059" id="tspan224">C        Lumn</tspan>
      </text>
      <text xmlSpace="preserve"
         style="font-weight:bold;font-size:160px;line-height:1.25;font-family:Ubuntu;-inkscape-font-specification:'Ubuntu Bold'"
         x="247.1534" y="132.9203" id="text73651">
         <tspan id="tspan73649" x="247.1534" y="132.9203" style="font-size:160px">O</tspan>
      </text>
   </g>
</svg>
